<svg width="151.47" height="149.9" viewBox="0 0 151.47 149.9" xmlns="http://www.w3.org/2000/svg" fill-opacity="null" stroke-opacity="null" stroke-width="1.5" fill="#fff" stroke="#000">
	<g transform="translate(-193.30511474609375, -91.93592071533203)">
		<ellipse transform="rotate(45 315.15759277343756,120.3295974731445)" ry="28.149104" rx="11.825195" id="svg_12" cy="120.329588" cx="315.157602"/>
		<ellipse transform="rotate(45 221.91723632812509,213.56994628906247)" ry="28.149104" rx="11.825195" id="svg_13" cy="213.569957" cx="221.917234"/>
		<ellipse transform="rotate(-45 221.57122802734375,120.20201110839844)" ry="28.149104" rx="11.825195" id="svg_16" cy="120.202003" cx="221.571208"/>
		<ellipse transform="rotate(-45 316.5062561035156,213.07070922851562)" ry="28.149104" rx="11.825195" id="svg_17" cy="213.070713" cx="316.506272"/>
		<rect rx="6" height="98.666175" width="98.666175" y="117.552908" x="219.705653"/>
	</g>
	<g transform="rotate(-90) scale(0.7)" transform-origin="center">
		<g transform="translate(-36.7312774658, -79)">
			<rect height="29.15324" width="71.785936" y="172.974558" x="77.634141"/>
			<line transform="rotate(10 141.13458251953153,151.6562347412109)" y2="169.914215" x2="159.392581" y1="133.398278" x1="122.876644"/>
			<line transform="rotate(80 85.91964721679689,151.65623474121094)" y2="169.914215" x2="104.177622" y1="133.398278" x1="67.661685"/>
			<line y2="172.499158" x2="155.756214" y1="172.499158" x1="70.977146"/>
			<line y2="130.9761" x2="126.399607" y1="130.9761" x1="100.735337"/>
			<rect height="5.015611" width="26.331959" y="125.911258" x="100.361149"/>
			<rect height="4.075184" width="23.510678" y="121.522598" x="101.771793"/>
			<rect height="18.808542" width="12.225552" y="98.153138" x="107.414354"/>
			<rect height="3.761708" width="19.748969" y="117.447414" x="103.652641"/>
			<rect height="46.080928" width="4.38866" y="51.930992" x="111.3328"/>
		</g>
	</g>
</svg>