<?xml version="1.0" encoding="UTF-8" standalone="no"?>
<!-- Generator: Adobe Illustrator 16.0.0, SVG Export Plug-In . SVG Version: 6.00 Build 0)  -->

<svg
   xmlns:dc="http://purl.org/dc/elements/1.1/"
   xmlns:cc="http://creativecommons.org/ns#"
   xmlns:rdf="http://www.w3.org/1999/02/22-rdf-syntax-ns#"
   xmlns:svg="http://www.w3.org/2000/svg"
   xmlns="http://www.w3.org/2000/svg"
   xmlns:sodipodi="http://sodipodi.sourceforge.net/DTD/sodipodi-0.dtd"
   xmlns:inkscape="http://www.inkscape.org/namespaces/inkscape"
   version="1.1"
   id="Capa_1"
   x="0px"
   y="0px"
   width="550.801px"
   height="550.8px"
   viewBox="0 0 550.801 550.8"
   style="enable-background:new 0 0 550.801 550.8;"
   xml:space="preserve"
   sodipodi:docname="alien_invert.svg"
   inkscape:version="0.92.4 (unknown)"><metadata
   id="metadata49"><rdf:RDF><cc:Work
       rdf:about=""><dc:format>image/svg+xml</dc:format><dc:type
         rdf:resource="http://purl.org/dc/dcmitype/StillImage" /><dc:title></dc:title></cc:Work></rdf:RDF></metadata><defs
   id="defs47"><filter
     style="color-interpolation-filters:sRGB;"
     inkscape:label="Invert"
     id="filter53"><feColorMatrix
       values="-1 0 0 0 1 0 -1 0 0 1 0 0 -1 0 1 0.21 0.72 0.07 1 0 "
       result="color2"
       id="feColorMatrix51" /></filter></defs><sodipodi:namedview
   pagecolor="#ffffff"
   bordercolor="#666666"
   borderopacity="1"
   objecttolerance="10"
   gridtolerance="10"
   guidetolerance="10"
   inkscape:pageopacity="0"
   inkscape:pageshadow="2"
   inkscape:window-width="640"
   inkscape:window-height="480"
   id="namedview45"
   showgrid="false"
   inkscape:zoom="0.42846769"
   inkscape:cx="275.40051"
   inkscape:cy="275.39999"
   inkscape:window-x="0"
   inkscape:window-y="0"
   inkscape:window-maximized="0"
   inkscape:current-layer="Capa_1" />
<g
   id="g12"
   style="filter:url(#filter53)">
	<path
   d="M541.951,272.337c-12.381,0-24.646,0-37.217,0c-3.379,0-9.014-0.202-9.014-3.58c0-12.583,0-24.958,0-37.565   c0-3.378,0.158-7.815-3.221-7.815c-12.594,0-24.883,0-37.387,0c-3.385,0-8.354-1.047-8.354-4.425c0-12.503,0-24.786,0-37.363   c0-3.384-0.502-7.172-3.881-7.172c-12.562,0-24.889,0-37.281,0c-3.379,0-7.797-1.702-7.797-5.08c0-12.754,0-25.172,0-37.546   c0-3.378-1.898-6.089-5.275-6.059c-12.211,0.098-24.719,0.11-37.395,0.11c-3.377,0-6.285,2.742-6.285,6.12   c0,12.668,0,24.976,0,37.216c-0.006,3.39-1.561,5.239-4.945,5.239c-45.941,0-91.365,0-137.301,0c-3.378,0-4.639-1.849-4.639-5.227   c0-12.442,0-24.762,0-37.252c0-3.378-3.476-6.12-6.854-6.12c-12.552,0-24.333-0.012-36.42-0.11   c-3.391-0.024-5.686,2.687-5.686,6.065c0,12.491,0,25.031,0,37.895c0,3.385-4.352,4.75-7.736,4.75c-12.625,0-25.006,0-37.589,0   c-3.378,0-3.635,4.106-3.635,7.484c0,12.589,0,24.884,0,37.412c0,3.384-5.227,4.064-8.605,4.064c-12.577,0-24.939,0-37.46,0   c-3.378,0-9.015,4.792-9.015,8.176c0,12.546,0,24.859,0,37.46c0,3.378,0.153,3.323-3.225,3.323c-12.436,0-24.688,0-36.885,0   c-3.378,0-8.85,5.532-8.85,8.91c0,45.606,0,90.668,0,135.729c0,3.385,5.471,8.36,8.85,8.36c12.289,0,24.461,0,36.867,0   c3.378,0,3.244-4.988,3.244-8.366c0-28.966,0-57.632,0-86.384c0-3.385,5.618-3.17,8.997-3.17c12.656,0,25.098,0,37.833,0   c3.378,0,8.25-0.208,8.25,3.17c0,29.021,0,57.84,0,86.935c0,3.378,1.67,6.114,5.055,6.114c12.558,0,25.239,0.018,37.332,0.109   c3.378,0.031,6.573-2.68,6.573-6.059c0-12.423,0-24.853,0-37.325c0-3.379,0.759-3.984,4.143-3.984c79.125,0,157.75,0,236.544,0   c3.379,0,6.119,1.677,6.119,5.055c0,12.559-0.018,25.227-0.115,37.455c-0.025,3.384,2.68,6.45,6.059,6.45   c12.312,0,24.664,0,37.271,0c3.371,0,3.738-4.468,3.738-7.846c0-29.241,0-57.957,0-86.818c0-3.379,5.117-3.256,8.5-3.256   c12.762,0,25.295,0,38.037,0c3.377,0,8.543-0.123,8.543,3.256c0,28.953,0,57.626,0,86.298c0,3.378,0.324,8.366,3.703,8.366   c12.338,0,24.418,0,36.4,0c3.379,0,8.857-4.981,8.857-8.36c0-45.416,0-90.509,0-135.98   C550.801,277.613,545.328,272.337,541.951,272.337z M201.96,268.475c0,3.379-3.831,3.862-7.209,3.862c-12.405,0-24.811,0-37.387,0   c-3.384,0-4.363-0.478-4.363-3.855c0-12.356,0-24.701,0-37.326c0-3.378,0.985-7.778,4.37-7.778c12.546,0,24.896,0,37.375,0   c3.378,0,7.215,4.4,7.215,7.785C201.96,243.604,201.96,255.948,201.96,268.475z M397.801,268.574c0,3.378-1.023,3.764-4.4,3.764   c-12.369,0-24.713,0-37.32,0c-3.385,0-7.24-0.386-7.24-3.771c0-12.509,0-24.853,0-37.344c0-3.372,3.861-7.846,7.24-7.846   c12.453,0,24.791,0,37.32,0c3.377,0,4.4,4.467,4.4,7.846C397.801,243.616,397.801,256.015,397.801,268.574z"
   id="path2" />
	<path
   d="M244.341,424.071c-9.21,0.006-18.5,0.018-27.558-0.007c-19.805-0.061-39.725-0.146-59.529-0.227   c-3.378-0.012-6.151,2.718-6.12,6.103c0.098,12.239,0.08,25.275,0.085,37.521c0,3.378,2.711,6.842,6.09,6.842   c29.425,0,58.011,0,86.567,0c3.378-0.006,7.044-4.204,7.044-7.582c0-12.204,0-24.26,0-36.524   C250.92,426.812,247.719,424.064,244.341,424.071z"
   id="path4" />
	<path
   d="M395.836,423.936c-0.949,0.073-1.463,0.753-2.43,0.753c-29.139,0.018-57.816,0.648-86.953,0.648c-0.93,0-1.861,0-2.773,0   c-1.529,0-3.799,1.469-3.799,4.847c0,12.491,0,24.566,0,36.616c0,3.378,3.77,7.497,7.154,7.497c28.793,0,57.367,0,86.486,0   c3.379,0,4.279-4.125,4.279-7.503c0-12.454,0-24.768,0-37.063C397.801,426.353,397.434,423.813,395.836,423.936z"
   id="path6" />
	<path
   d="M108.214,125.458c12.454,0,24.761,0,37.057,0c3.378,0,6.083-2.644,6.059-6.022c-0.098-12.24-0.11-24.56-0.116-36.806   c0-3.378-2.742-6.126-6.126-6.126c-12.687,0-24.811,0-36.873,0c-3.378-0.006-4.174,2.846-4.174,6.23c0,12.24,0,24.352,0,36.806   C104.04,122.917,104.835,125.458,108.214,125.458z"
   id="path8" />
	<path
   d="M404.844,125.788c12.24-0.098,24.053-0.11,36.299-0.116c3.383,0,5.617-2.748,5.617-6.126c0-12.693,0-24.816,0-36.885   c0-3.378-0.82-6.163-4.197-6.163c-12.229,0-24.34,0-36.795,0c-3.377,0-7.967,2.796-7.967,6.175c0,12.454,0,24.768,0,37.062   C397.801,123.113,401.465,125.818,404.844,125.788z"
   id="path10" />
</g>
<g
   id="g14">
</g>
<g
   id="g16">
</g>
<g
   id="g18">
</g>
<g
   id="g20">
</g>
<g
   id="g22">
</g>
<g
   id="g24">
</g>
<g
   id="g26">
</g>
<g
   id="g28">
</g>
<g
   id="g30">
</g>
<g
   id="g32">
</g>
<g
   id="g34">
</g>
<g
   id="g36">
</g>
<g
   id="g38">
</g>
<g
   id="g40">
</g>
<g
   id="g42">
</g>
</svg>